<svg xmlns="http://www.w3.org/2000/svg" xmlns:xlink="http://www.w3.org/1999/xlink" width="500" zoomAndPan="magnify" viewBox="0 0 375 374.999991" height="500" preserveAspectRatio="xMidYMid meet" version="1.0"><defs><g/><clipPath id="1bb3c43221"><path d="M 218 53.546875 L 353.960938 53.546875 L 353.960938 179.546875 L 218 179.546875 Z M 218 53.546875 " clip-rule="nonzero"/></clipPath><clipPath id="f36e6a19de"><path d="M 156 53.546875 L 241 53.546875 L 241 160 L 156 160 Z M 156 53.546875 " clip-rule="nonzero"/></clipPath><clipPath id="a24f8c4712"><path d="M 20.960938 91 L 100 91 L 100 179.546875 L 20.960938 179.546875 Z M 20.960938 91 " clip-rule="nonzero"/></clipPath><clipPath id="b14ec5eb8f"><path d="M 99 91 L 179 91 L 179 179.546875 L 99 179.546875 Z M 99 91 " clip-rule="nonzero"/></clipPath></defs><rect x="-37.5" width="450" fill="#ffffff" y="-37.499999" height="449.999989" fill-opacity="1"/><rect x="-37.5" width="450" fill="#ffffff" y="-37.499999" height="449.999989" fill-opacity="1"/><g clip-path="url(#1bb3c43221)"><path fill="#ffd700" d="M 240.605469 53.570312 L 354.03125 179.269531 L 218.359375 179.269531 L 322.234375 169.011719 L 240.605469 78.53125 L 240.605469 53.570312 " fill-opacity="1" fill-rule="nonzero"/></g><g clip-path="url(#f36e6a19de)"><path fill="#393536" d="M 156.078125 147.25 L 167.355469 159.730469 L 240.605469 78.535156 L 240.605469 53.570312 L 156.078125 147.25 " fill-opacity="1" fill-rule="nonzero"/></g><g clip-path="url(#a24f8c4712)"><path fill="#393536" d="M 61.304688 134.59375 L 61.304688 119.515625 L 46.375 119.515625 L 37.296875 132.554688 L 46.375 127.785156 L 46.375 151.125 L 20.960938 179.269531 L 43.503906 179.269531 L 99.882812 116.832031 L 99.882812 91.867188 L 61.304688 134.59375 " fill-opacity="1" fill-rule="nonzero"/></g><g clip-path="url(#b14ec5eb8f)"><path fill="#ffd700" d="M 99.882812 91.867188 L 99.882812 116.832031 L 156.265625 179.269531 L 178.804688 179.269531 L 99.882812 91.867188 " fill-opacity="1" fill-rule="nonzero"/></g><path fill="#ffd700" d="M 238.789062 138.515625 L 223.910156 138.515625 L 223.910156 123.632812 L 238.789062 123.632812 L 238.789062 138.515625 " fill-opacity="1" fill-rule="nonzero"/><path fill="#ffd700" d="M 257.304688 138.515625 L 242.425781 138.515625 L 242.425781 123.632812 L 257.304688 123.632812 L 257.304688 138.515625 " fill-opacity="1" fill-rule="nonzero"/><path fill="#ffd700" d="M 238.789062 157.175781 L 223.910156 157.175781 L 223.910156 142.292969 L 238.789062 142.292969 L 238.789062 157.175781 " fill-opacity="1" fill-rule="nonzero"/><path fill="#ffd700" d="M 257.304688 157.175781 L 242.425781 157.175781 L 242.425781 142.292969 L 257.304688 142.292969 L 257.304688 157.175781 " fill-opacity="1" fill-rule="nonzero"/><path fill="#ffd700" d="M 98.554688 158.351562 L 87.6875 158.351562 L 87.6875 147.484375 L 98.554688 147.484375 L 98.554688 158.351562 " fill-opacity="1" fill-rule="nonzero"/><path fill="#ffd700" d="M 112.078125 158.351562 L 101.210938 158.351562 L 101.210938 147.484375 L 112.078125 147.484375 L 112.078125 158.351562 " fill-opacity="1" fill-rule="nonzero"/><path fill="#ffd700" d="M 98.554688 171.980469 L 87.6875 171.980469 L 87.6875 161.113281 L 98.554688 161.113281 L 98.554688 171.980469 " fill-opacity="1" fill-rule="nonzero"/><path fill="#ffd700" d="M 112.078125 171.980469 L 101.210938 171.980469 L 101.210938 161.113281 L 112.078125 161.113281 L 112.078125 171.980469 " fill-opacity="1" fill-rule="nonzero"/><g fill="#393536" fill-opacity="1"><g transform="translate(99.833461, 314.553594)"><g><path d="M 6.109375 -10.015625 L 6.109375 0 L 3.3125 0 L 3.3125 -24.078125 L 9.90625 -24.078125 C 12.863281 -24.078125 15.046875 -23.507812 16.453125 -22.375 C 17.867188 -21.238281 18.578125 -19.535156 18.578125 -17.265625 C 18.578125 -14.085938 16.960938 -11.9375 13.734375 -10.8125 L 20.265625 0 L 16.953125 0 L 11.125 -10.015625 Z M 6.109375 -12.40625 L 9.9375 -12.40625 C 11.914062 -12.40625 13.363281 -12.796875 14.28125 -13.578125 C 15.207031 -14.367188 15.671875 -15.550781 15.671875 -17.125 C 15.671875 -18.71875 15.203125 -19.863281 14.265625 -20.5625 C 13.328125 -21.269531 11.820312 -21.625 9.75 -21.625 L 6.109375 -21.625 Z M 6.109375 -12.40625 "/></g></g></g><g fill="#393536" fill-opacity="1"><g transform="translate(127.610147, 314.553594)"><g><path d="M 18.4375 0 L 15.4375 -7.65625 L 5.796875 -7.65625 L 2.828125 0 L 0 0 L 9.515625 -24.171875 L 11.875 -24.171875 L 21.34375 0 Z M 14.578125 -10.171875 L 11.765625 -17.640625 C 11.410156 -18.578125 11.039062 -19.734375 10.65625 -21.109375 C 10.414062 -20.054688 10.066406 -18.898438 9.609375 -17.640625 L 6.78125 -10.171875 Z M 14.578125 -10.171875 "/></g></g></g><g fill="#393536" fill-opacity="1"><g transform="translate(155.880448, 314.553594)"><g><path d="M 22.515625 -12.265625 C 22.515625 -8.296875 21.4375 -5.257812 19.28125 -3.15625 C 17.125 -1.050781 14.023438 0 9.984375 0 L 3.3125 0 L 3.3125 -24.078125 L 10.6875 -24.078125 C 14.425781 -24.078125 17.332031 -23.035156 19.40625 -20.953125 C 21.476562 -18.878906 22.515625 -15.984375 22.515625 -12.265625 Z M 19.5625 -12.171875 C 19.5625 -15.304688 18.769531 -17.671875 17.1875 -19.265625 C 15.613281 -20.859375 13.273438 -21.65625 10.171875 -21.65625 L 6.109375 -21.65625 L 6.109375 -2.421875 L 9.515625 -2.421875 C 12.847656 -2.421875 15.351562 -3.238281 17.03125 -4.875 C 18.71875 -6.519531 19.5625 -8.953125 19.5625 -12.171875 Z M 19.5625 -12.171875 "/></g></g></g><g fill="#393536" fill-opacity="1"><g transform="translate(187.392166, 314.553594)"><g><path d="M 18.4375 0 L 15.4375 -7.65625 L 5.796875 -7.65625 L 2.828125 0 L 0 0 L 9.515625 -24.171875 L 11.875 -24.171875 L 21.34375 0 Z M 14.578125 -10.171875 L 11.765625 -17.640625 C 11.410156 -18.578125 11.039062 -19.734375 10.65625 -21.109375 C 10.414062 -20.054688 10.066406 -18.898438 9.609375 -17.640625 L 6.78125 -10.171875 Z M 14.578125 -10.171875 "/></g></g></g><g fill="#393536" fill-opacity="1"><g transform="translate(215.662468, 314.553594)"><g><path d="M 24.3125 0 L 21.546875 0 L 16.6875 -16.125 C 16.457031 -16.832031 16.203125 -17.726562 15.921875 -18.8125 C 15.640625 -19.90625 15.488281 -20.5625 15.46875 -20.78125 C 15.226562 -19.332031 14.847656 -17.742188 14.328125 -16.015625 L 9.609375 0 L 6.84375 0 L 0.4375 -24.078125 L 3.40625 -24.078125 L 7.21875 -9.203125 C 7.738281 -7.117188 8.117188 -5.234375 8.359375 -3.546875 C 8.660156 -5.546875 9.101562 -7.507812 9.6875 -9.4375 L 14 -24.078125 L 16.953125 -24.078125 L 21.484375 -9.296875 C 22.015625 -7.597656 22.457031 -5.679688 22.8125 -3.546875 C 23.019531 -5.097656 23.414062 -6.992188 24 -9.234375 L 27.796875 -24.078125 L 30.75 -24.078125 Z M 24.3125 0 "/></g></g></g><g fill="#393536" fill-opacity="1"><g transform="translate(253.805107, 314.553594)"><g><path d="M 18.4375 0 L 15.4375 -7.65625 L 5.796875 -7.65625 L 2.828125 0 L 0 0 L 9.515625 -24.171875 L 11.875 -24.171875 L 21.34375 0 Z M 14.578125 -10.171875 L 11.765625 -17.640625 C 11.410156 -18.578125 11.039062 -19.734375 10.65625 -21.109375 C 10.414062 -20.054688 10.066406 -18.898438 9.609375 -17.640625 L 6.78125 -10.171875 Z M 14.578125 -10.171875 "/></g></g></g><g fill="#393536" fill-opacity="1"><g transform="translate(21.660352, 259.094556)"><g><path d="M 51.46875 -0.71875 L 52.046875 -0.71875 L 52.046875 0 L 35.875 0 L 35.875 -0.71875 L 36.515625 -0.71875 C 37.523438 -0.71875 38.28125 -1.039062 38.78125 -1.6875 C 39.28125 -2.332031 39.53125 -2.941406 39.53125 -3.515625 C 39.53125 -4.097656 39.4375 -4.675781 39.25 -5.25 L 34.65625 -17.46875 L 15.25 -17.46875 L 10.421875 -5.171875 C 10.234375 -4.597656 10.140625 -4.035156 10.140625 -3.484375 C 10.140625 -2.929688 10.390625 -2.332031 10.890625 -1.6875 C 11.398438 -1.039062 12.15625 -0.71875 13.15625 -0.71875 L 13.8125 -0.71875 L 13.8125 0 L -0.640625 0 L -0.640625 -0.71875 L 0 -0.71875 C 1.195312 -0.71875 2.367188 -1.097656 3.515625 -1.859375 C 4.671875 -2.628906 5.609375 -3.757812 6.328125 -5.25 L 22.578125 -43.921875 C 24.347656 -47.796875 25.234375 -50.257812 25.234375 -51.3125 L 25.875 -51.3125 L 45.140625 -5.25 C 45.816406 -3.757812 46.726562 -2.628906 47.875 -1.859375 C 49.019531 -1.097656 50.21875 -0.71875 51.46875 -0.71875 Z M 16.109375 -19.625 L 33.78125 -19.625 L 25.15625 -42.6875 Z M 16.109375 -19.625 "/></g></g></g><g fill="#393536" fill-opacity="1"><g transform="translate(72.828291, 259.094556)"><g><path d="M 19.125 -48.078125 L 14.515625 -48.078125 L 14.515625 -5.25 C 14.515625 -4 14.957031 -2.929688 15.84375 -2.046875 C 16.726562 -1.160156 17.820312 -0.71875 19.125 -0.71875 L 19.984375 -0.71875 L 20.046875 0 L 4.3125 0 L 4.3125 -0.71875 L 5.25 -0.71875 C 6.488281 -0.71875 7.550781 -1.148438 8.4375 -2.015625 C 9.332031 -2.878906 9.800781 -3.929688 9.84375 -5.171875 L 9.84375 -45.0625 C 9.800781 -46.3125 9.332031 -47.378906 8.4375 -48.265625 C 7.550781 -49.148438 6.488281 -49.59375 5.25 -49.59375 L 4.3125 -49.59375 L 4.3125 -50.3125 L 23.71875 -50.3125 C 28.082031 -50.3125 31.507812 -49.097656 34 -46.671875 C 36.488281 -44.253906 37.734375 -41.117188 37.734375 -37.265625 C 37.734375 -33.410156 36.546875 -30.082031 34.171875 -27.28125 C 31.804688 -24.476562 28.921875 -23.078125 25.515625 -23.078125 C 26.234375 -22.734375 27.082031 -22.070312 28.0625 -21.09375 C 29.050781 -20.113281 29.925781 -19.097656 30.6875 -18.046875 C 34.8125 -12.148438 37.492188 -8.519531 38.734375 -7.15625 C 39.984375 -5.789062 40.867188 -4.851562 41.390625 -4.34375 C 41.921875 -3.84375 42.5 -3.351562 43.125 -2.875 C 43.75 -2.394531 44.375 -2.007812 45 -1.71875 C 46.382812 -1.050781 47.867188 -0.71875 49.453125 -0.71875 L 49.453125 0 L 45.5 0 C 43.4375 0 41.519531 -0.367188 39.75 -1.109375 C 37.976562 -1.859375 36.644531 -2.625 35.75 -3.40625 C 34.863281 -4.195312 34.097656 -4.960938 33.453125 -5.703125 C 32.804688 -6.453125 31.019531 -8.9375 28.09375 -13.15625 C 25.175781 -17.375 23.476562 -19.78125 23 -20.375 C 22.519531 -20.976562 22.015625 -21.566406 21.484375 -22.140625 C 19.953125 -23.765625 18.421875 -24.578125 16.890625 -24.578125 L 16.890625 -25.296875 C 17.273438 -25.253906 17.773438 -25.234375 18.390625 -25.234375 C 19.015625 -25.234375 19.785156 -25.253906 20.703125 -25.296875 C 26.640625 -25.441406 30.375 -27.9375 31.90625 -32.78125 C 32.195312 -33.738281 32.34375 -34.632812 32.34375 -35.46875 C 32.34375 -36.3125 32.34375 -36.851562 32.34375 -37.09375 C 32.25 -40.300781 31.410156 -42.882812 29.828125 -44.84375 C 28.242188 -46.8125 26.113281 -47.867188 23.4375 -48.015625 C 22.28125 -48.054688 20.84375 -48.078125 19.125 -48.078125 Z M 19.125 -48.078125 "/></g></g></g><g fill="#393536" fill-opacity="1"><g transform="translate(121.480957, 259.094556)"><g><path d="M 19.125 -0.71875 L 20.046875 -0.71875 L 20.046875 0 L 4.3125 0 L 4.3125 -0.71875 L 5.25 -0.71875 C 6.488281 -0.71875 7.550781 -1.160156 8.4375 -2.046875 C 9.332031 -2.929688 9.800781 -4 9.84375 -5.25 L 9.84375 -45.140625 C 9.800781 -46.378906 9.332031 -47.429688 8.4375 -48.296875 C 7.550781 -49.160156 6.488281 -49.59375 5.25 -49.59375 L 4.3125 -49.59375 L 4.3125 -50.3125 L 20.046875 -50.3125 L 20.046875 -49.59375 L 19.125 -49.59375 C 17.875 -49.59375 16.804688 -49.160156 15.921875 -48.296875 C 15.035156 -47.429688 14.566406 -46.378906 14.515625 -45.140625 L 14.515625 -5.25 C 14.515625 -4 14.96875 -2.929688 15.875 -2.046875 C 16.789062 -1.160156 17.875 -0.71875 19.125 -0.71875 Z M 48.015625 0 L 44.921875 0 C 40.035156 0 36.441406 -1.363281 34.140625 -4.09375 L 16.8125 -25.015625 L 33.78125 -46.28125 C 34.164062 -46.757812 34.359375 -47.191406 34.359375 -47.578125 C 34.359375 -47.960938 34.285156 -48.300781 34.140625 -48.59375 C 33.753906 -49.3125 33.0625 -49.671875 32.0625 -49.671875 L 31.34375 -49.671875 L 31.34375 -50.3125 L 46.5 -50.3125 L 46.5 -49.671875 L 46.21875 -49.671875 C 43.050781 -49.671875 40.460938 -48.539062 38.453125 -46.28125 L 21.5625 -26.734375 L 41.1875 -3.671875 C 43.101562 -1.753906 45.378906 -0.769531 48.015625 -0.71875 Z M 48.015625 0 "/></g></g></g><g fill="#393536" fill-opacity="1"><g transform="translate(168.696314, 259.094556)"><g><path d="M 51.46875 -0.71875 L 52.046875 -0.71875 L 52.046875 0 L 35.875 0 L 35.875 -0.71875 L 36.515625 -0.71875 C 37.523438 -0.71875 38.28125 -1.039062 38.78125 -1.6875 C 39.28125 -2.332031 39.53125 -2.941406 39.53125 -3.515625 C 39.53125 -4.097656 39.4375 -4.675781 39.25 -5.25 L 34.65625 -17.46875 L 15.25 -17.46875 L 10.421875 -5.171875 C 10.234375 -4.597656 10.140625 -4.035156 10.140625 -3.484375 C 10.140625 -2.929688 10.390625 -2.332031 10.890625 -1.6875 C 11.398438 -1.039062 12.15625 -0.71875 13.15625 -0.71875 L 13.8125 -0.71875 L 13.8125 0 L -0.640625 0 L -0.640625 -0.71875 L 0 -0.71875 C 1.195312 -0.71875 2.367188 -1.097656 3.515625 -1.859375 C 4.671875 -2.628906 5.609375 -3.757812 6.328125 -5.25 L 22.578125 -43.921875 C 24.347656 -47.796875 25.234375 -50.257812 25.234375 -51.3125 L 25.875 -51.3125 L 45.140625 -5.25 C 45.816406 -3.757812 46.726562 -2.628906 47.875 -1.859375 C 49.019531 -1.097656 50.21875 -0.71875 51.46875 -0.71875 Z M 16.109375 -19.625 L 33.78125 -19.625 L 25.15625 -42.6875 Z M 16.109375 -19.625 "/></g></g></g><g fill="#393536" fill-opacity="1"><g transform="translate(219.864254, 259.094556)"><g><path d="M 28.671875 -50.3125 C 36.335938 -50.3125 42.554688 -48 47.328125 -43.375 C 52.097656 -38.75 54.484375 -32.675781 54.484375 -25.15625 C 54.484375 -17.632812 52.097656 -11.5625 47.328125 -6.9375 C 42.554688 -2.3125 36.335938 0 28.671875 0 L 4.3125 0 L 4.3125 -0.71875 L 5.25 -0.71875 C 6.488281 -0.71875 7.550781 -1.160156 8.4375 -2.046875 C 9.332031 -2.929688 9.800781 -4 9.84375 -5.25 L 9.84375 -45.5 C 9.84375 -46.644531 9.375 -47.613281 8.4375 -48.40625 C 7.507812 -49.195312 6.445312 -49.59375 5.25 -49.59375 L 4.390625 -49.59375 L 4.3125 -50.3125 Z M 14.515625 -48.15625 L 14.515625 -2.15625 L 28.671875 -2.15625 C 32.703125 -2.15625 36.257812 -3.113281 39.34375 -5.03125 C 42.4375 -6.945312 44.832031 -9.640625 46.53125 -13.109375 C 48.238281 -16.585938 49.09375 -20.601562 49.09375 -25.15625 C 49.09375 -32.050781 47.210938 -37.609375 43.453125 -41.828125 C 39.691406 -46.046875 34.765625 -48.15625 28.671875 -48.15625 Z M 14.515625 -48.15625 "/></g></g></g><g fill="#393536" fill-opacity="1"><g transform="translate(277.859369, 259.094556)"><g><path d="M 5.25 -0.71875 C 6.488281 -0.71875 7.550781 -1.160156 8.4375 -2.046875 C 9.332031 -2.929688 9.800781 -4 9.84375 -5.25 L 9.84375 -45.140625 C 9.800781 -46.378906 9.332031 -47.429688 8.4375 -48.296875 C 7.550781 -49.160156 6.488281 -49.59375 5.25 -49.59375 L 4.3125 -49.59375 L 4.3125 -50.3125 L 20.046875 -50.3125 L 20.046875 -49.59375 L 19.125 -49.59375 C 17.875 -49.59375 16.804688 -49.160156 15.921875 -48.296875 C 15.035156 -47.429688 14.566406 -46.378906 14.515625 -45.140625 L 14.515625 -5.25 C 14.515625 -4 14.96875 -2.929688 15.875 -2.046875 C 16.789062 -1.160156 17.875 -0.71875 19.125 -0.71875 L 20.046875 -0.71875 L 20.046875 0 L 4.3125 0 L 4.3125 -0.71875 Z M 5.25 -0.71875 "/></g></g></g><g fill="#393536" fill-opacity="1"><g transform="translate(302.149761, 259.094556)"><g><path d="M 51.46875 -0.71875 L 52.046875 -0.71875 L 52.046875 0 L 35.875 0 L 35.875 -0.71875 L 36.515625 -0.71875 C 37.523438 -0.71875 38.28125 -1.039062 38.78125 -1.6875 C 39.28125 -2.332031 39.53125 -2.941406 39.53125 -3.515625 C 39.53125 -4.097656 39.4375 -4.675781 39.25 -5.25 L 34.65625 -17.46875 L 15.25 -17.46875 L 10.421875 -5.171875 C 10.234375 -4.597656 10.140625 -4.035156 10.140625 -3.484375 C 10.140625 -2.929688 10.390625 -2.332031 10.890625 -1.6875 C 11.398438 -1.039062 12.15625 -0.71875 13.15625 -0.71875 L 13.8125 -0.71875 L 13.8125 0 L -0.640625 0 L -0.640625 -0.71875 L 0 -0.71875 C 1.195312 -0.71875 2.367188 -1.097656 3.515625 -1.859375 C 4.671875 -2.628906 5.609375 -3.757812 6.328125 -5.25 L 22.578125 -43.921875 C 24.347656 -47.796875 25.234375 -50.257812 25.234375 -51.3125 L 25.875 -51.3125 L 45.140625 -5.25 C 45.816406 -3.757812 46.726562 -2.628906 47.875 -1.859375 C 49.019531 -1.097656 50.21875 -0.71875 51.46875 -0.71875 Z M 16.109375 -19.625 L 33.78125 -19.625 L 25.15625 -42.6875 Z M 16.109375 -19.625 "/></g></g></g><path stroke-linecap="butt" transform="matrix(0.75, 0, 0, 0.75, 20.959407, 293.533078)" fill="none" stroke-linejoin="miter" d="M 0.00204082 0.997563 L 72.986421 0.997563 " stroke="#000000" stroke-width="2" stroke-opacity="1" stroke-miterlimit="4"/><path stroke-linecap="butt" transform="matrix(0.75, 0, 0, 0.75, 299.299468, 293.533078)" fill="none" stroke-linejoin="miter" d="M 0.00175094 0.997563 L 72.986131 0.997563 " stroke="#000000" stroke-width="2" stroke-opacity="1" stroke-miterlimit="4"/></svg>