<svg xmlns="http://www.w3.org/2000/svg" xmlns:xlink="http://www.w3.org/1999/xlink" width="500" zoomAndPan="magnify" viewBox="0 0 375 374.999991" height="500" preserveAspectRatio="xMidYMid meet" version="1.0"><defs><g/><clipPath id="c2c7e2e542"><path d="M 203 123.199219 L 272.613281 123.199219 L 272.613281 187.699219 L 203 187.699219 Z M 203 123.199219 " clip-rule="nonzero"/></clipPath><clipPath id="dfaf560b80"><path d="M 171 123.199219 L 215 123.199219 L 215 178 L 171 178 Z M 171 123.199219 " clip-rule="nonzero"/></clipPath><clipPath id="c61fd2270c"><path d="M 102.363281 142 L 143 142 L 143 187.699219 L 102.363281 187.699219 Z M 102.363281 142 " clip-rule="nonzero"/></clipPath><clipPath id="82df1f3dac"><path d="M 142 142 L 184 142 L 184 187.699219 L 142 187.699219 Z M 142 142 " clip-rule="nonzero"/></clipPath></defs><rect x="-37.5" width="450" fill="#ffffff" y="-37.499999" height="449.999989" fill-opacity="1"/><rect x="-37.5" width="450" fill="#ffffff" y="-37.499999" height="449.999989" fill-opacity="1"/><g clip-path="url(#c2c7e2e542)"><path fill="#e1a730" d="M 214.652344 123.207031 L 272.636719 187.46875 L 203.277344 187.46875 L 256.382812 182.222656 L 214.652344 135.96875 L 214.652344 123.207031 " fill-opacity="1" fill-rule="nonzero"/></g><g clip-path="url(#dfaf560b80)"><path fill="#393536" d="M 171.4375 171.097656 L 177.203125 177.480469 L 214.652344 135.96875 L 214.652344 123.207031 L 171.4375 171.097656 " fill-opacity="1" fill-rule="nonzero"/></g><g clip-path="url(#c61fd2270c)"><path fill="#393536" d="M 122.988281 164.628906 L 122.988281 156.917969 L 115.355469 156.917969 L 110.714844 163.585938 L 115.355469 161.144531 L 115.355469 173.078125 L 102.363281 187.46875 L 113.886719 187.46875 L 142.710938 155.546875 L 142.710938 142.785156 L 122.988281 164.628906 " fill-opacity="1" fill-rule="nonzero"/></g><g clip-path="url(#82df1f3dac)"><path fill="#e1a730" d="M 142.710938 142.785156 L 142.710938 155.546875 L 171.535156 187.46875 L 183.058594 187.46875 L 142.710938 142.785156 " fill-opacity="1" fill-rule="nonzero"/></g><path fill="#e1a730" d="M 213.722656 166.632812 L 206.113281 166.632812 L 206.113281 159.023438 L 213.722656 159.023438 L 213.722656 166.632812 " fill-opacity="1" fill-rule="nonzero"/><path fill="#e1a730" d="M 223.1875 166.632812 L 215.582031 166.632812 L 215.582031 159.023438 L 223.1875 159.023438 L 223.1875 166.632812 " fill-opacity="1" fill-rule="nonzero"/><path fill="#e1a730" d="M 213.722656 176.171875 L 206.113281 176.171875 L 206.113281 168.5625 L 213.722656 168.5625 L 213.722656 176.171875 " fill-opacity="1" fill-rule="nonzero"/><path fill="#e1a730" d="M 223.1875 176.171875 L 215.582031 176.171875 L 215.582031 168.5625 L 223.1875 168.5625 L 223.1875 176.171875 " fill-opacity="1" fill-rule="nonzero"/><path fill="#e1a730" d="M 142.03125 176.773438 L 136.476562 176.773438 L 136.476562 171.21875 L 142.03125 171.21875 L 142.03125 176.773438 " fill-opacity="1" fill-rule="nonzero"/><path fill="#e1a730" d="M 148.945312 176.773438 L 143.390625 176.773438 L 143.390625 171.21875 L 148.945312 171.21875 L 148.945312 176.773438 " fill-opacity="1" fill-rule="nonzero"/><path fill="#e1a730" d="M 142.03125 183.742188 L 136.476562 183.742188 L 136.476562 178.183594 L 142.03125 178.183594 L 142.03125 183.742188 " fill-opacity="1" fill-rule="nonzero"/><path fill="#e1a730" d="M 148.945312 183.742188 L 143.390625 183.742188 L 143.390625 178.183594 L 148.945312 178.183594 L 148.945312 183.742188 " fill-opacity="1" fill-rule="nonzero"/><g fill="#393536" fill-opacity="1"><g transform="translate(142.683907, 256.626209)"><g><path d="M 3.125 -5.109375 L 3.125 0 L 1.6875 0 L 1.6875 -12.296875 L 5.0625 -12.296875 C 6.570312 -12.296875 7.6875 -12.003906 8.40625 -11.421875 C 9.132812 -10.847656 9.5 -9.984375 9.5 -8.828125 C 9.5 -7.203125 8.671875 -6.101562 7.015625 -5.53125 L 10.359375 0 L 8.671875 0 L 5.6875 -5.109375 Z M 3.125 -6.34375 L 5.078125 -6.34375 C 6.085938 -6.34375 6.828125 -6.539062 7.296875 -6.9375 C 7.773438 -7.34375 8.015625 -7.945312 8.015625 -8.75 C 8.015625 -9.5625 7.773438 -10.144531 7.296875 -10.5 C 6.816406 -10.863281 6.046875 -11.046875 4.984375 -11.046875 L 3.125 -11.046875 Z M 3.125 -6.34375 "/></g></g></g><g fill="#393536" fill-opacity="1"><g transform="translate(156.883652, 256.626209)"><g><path d="M 9.421875 0 L 7.890625 -3.90625 L 2.96875 -3.90625 L 1.453125 0 L 0 0 L 4.859375 -12.359375 L 6.0625 -12.359375 L 10.90625 0 Z M 7.453125 -5.203125 L 6.015625 -9.015625 C 5.828125 -9.492188 5.632812 -10.082031 5.4375 -10.78125 C 5.320312 -10.25 5.148438 -9.660156 4.921875 -9.015625 L 3.46875 -5.203125 Z M 7.453125 -5.203125 "/></g></g></g><g fill="#393536" fill-opacity="1"><g transform="translate(171.335739, 256.626209)"><g><path d="M 11.515625 -6.265625 C 11.515625 -4.234375 10.960938 -2.679688 9.859375 -1.609375 C 8.753906 -0.535156 7.164062 0 5.09375 0 L 1.6875 0 L 1.6875 -12.296875 L 5.46875 -12.296875 C 7.375 -12.296875 8.859375 -11.765625 9.921875 -10.703125 C 10.984375 -9.648438 11.515625 -8.171875 11.515625 -6.265625 Z M 10 -6.21875 C 10 -7.820312 9.59375 -9.03125 8.78125 -9.84375 C 7.976562 -10.65625 6.785156 -11.0625 5.203125 -11.0625 L 3.125 -11.0625 L 3.125 -1.234375 L 4.859375 -1.234375 C 6.566406 -1.234375 7.847656 -1.648438 8.703125 -2.484375 C 9.566406 -3.328125 10 -4.570312 10 -6.21875 Z M 10 -6.21875 "/></g></g></g><g fill="#393536" fill-opacity="1"><g transform="translate(187.444874, 256.626209)"><g><path d="M 9.421875 0 L 7.890625 -3.90625 L 2.96875 -3.90625 L 1.453125 0 L 0 0 L 4.859375 -12.359375 L 6.0625 -12.359375 L 10.90625 0 Z M 7.453125 -5.203125 L 6.015625 -9.015625 C 5.828125 -9.492188 5.632812 -10.082031 5.4375 -10.78125 C 5.320312 -10.25 5.148438 -9.660156 4.921875 -9.015625 L 3.46875 -5.203125 Z M 7.453125 -5.203125 "/></g></g></g><g fill="#393536" fill-opacity="1"><g transform="translate(201.896961, 256.626209)"><g><path d="M 12.421875 0 L 11.015625 0 L 8.53125 -8.234375 C 8.414062 -8.597656 8.285156 -9.054688 8.140625 -9.609375 C 7.992188 -10.171875 7.914062 -10.507812 7.90625 -10.625 C 7.78125 -9.882812 7.585938 -9.070312 7.328125 -8.1875 L 4.921875 0 L 3.5 0 L 0.234375 -12.296875 L 1.734375 -12.296875 L 3.6875 -4.703125 C 3.957031 -3.640625 4.15625 -2.675781 4.28125 -1.8125 C 4.425781 -2.832031 4.648438 -3.835938 4.953125 -4.828125 L 7.15625 -12.296875 L 8.671875 -12.296875 L 10.984375 -4.75 C 11.253906 -3.882812 11.476562 -2.90625 11.65625 -1.8125 C 11.769531 -2.601562 11.972656 -3.570312 12.265625 -4.71875 L 14.203125 -12.296875 L 15.71875 -12.296875 Z M 12.421875 0 "/></g></g></g><g fill="#393536" fill-opacity="1"><g transform="translate(221.395896, 256.626209)"><g><path d="M 9.421875 0 L 7.890625 -3.90625 L 2.96875 -3.90625 L 1.453125 0 L 0 0 L 4.859375 -12.359375 L 6.0625 -12.359375 L 10.90625 0 Z M 7.453125 -5.203125 L 6.015625 -9.015625 C 5.828125 -9.492188 5.632812 -10.082031 5.4375 -10.78125 C 5.320312 -10.25 5.148438 -9.660156 4.921875 -9.015625 L 3.46875 -5.203125 Z M 7.453125 -5.203125 "/></g></g></g><g fill="#393536" fill-opacity="1"><g transform="translate(102.720945, 228.274936)"><g><path d="M 26.3125 -0.375 L 26.59375 -0.375 L 26.59375 0 L 18.328125 0 L 18.328125 -0.375 L 18.65625 -0.375 C 19.175781 -0.375 19.5625 -0.535156 19.8125 -0.859375 C 20.070312 -1.191406 20.203125 -1.503906 20.203125 -1.796875 C 20.203125 -2.085938 20.15625 -2.382812 20.0625 -2.6875 L 17.703125 -8.9375 L 7.78125 -8.9375 L 5.328125 -2.640625 C 5.222656 -2.347656 5.171875 -2.0625 5.171875 -1.78125 C 5.171875 -1.5 5.300781 -1.191406 5.5625 -0.859375 C 5.820312 -0.535156 6.207031 -0.375 6.71875 -0.375 L 7.046875 -0.375 L 7.046875 0 L -0.34375 0 L -0.34375 -0.375 L 0 -0.375 C 0.601562 -0.375 1.195312 -0.566406 1.78125 -0.953125 C 2.375 -1.347656 2.859375 -1.925781 3.234375 -2.6875 L 11.53125 -22.453125 C 12.4375 -24.441406 12.890625 -25.703125 12.890625 -26.234375 L 13.21875 -26.234375 L 23.078125 -2.6875 C 23.421875 -1.925781 23.882812 -1.347656 24.46875 -0.953125 C 25.0625 -0.566406 25.675781 -0.375 26.3125 -0.375 Z M 8.21875 -10.03125 L 17.265625 -10.03125 L 12.859375 -21.828125 Z M 8.21875 -10.03125 "/></g></g></g><g fill="#393536" fill-opacity="1"><g transform="translate(128.878556, 228.274936)"><g><path d="M 9.78125 -24.578125 L 7.421875 -24.578125 L 7.421875 -2.6875 C 7.421875 -2.050781 7.644531 -1.503906 8.09375 -1.046875 C 8.550781 -0.597656 9.113281 -0.375 9.78125 -0.375 L 10.21875 -0.375 L 10.25 0 L 2.203125 0 L 2.203125 -0.375 L 2.6875 -0.375 C 3.320312 -0.375 3.863281 -0.59375 4.3125 -1.03125 C 4.769531 -1.46875 5.007812 -2.003906 5.03125 -2.640625 L 5.03125 -23.046875 C 5.007812 -23.679688 4.769531 -24.222656 4.3125 -24.671875 C 3.863281 -25.128906 3.320312 -25.359375 2.6875 -25.359375 L 2.203125 -25.359375 L 2.203125 -25.71875 L 12.125 -25.71875 C 14.351562 -25.71875 16.101562 -25.097656 17.375 -23.859375 C 18.65625 -22.628906 19.296875 -21.023438 19.296875 -19.046875 C 19.296875 -17.078125 18.6875 -15.375 17.46875 -13.9375 C 16.257812 -12.507812 14.785156 -11.796875 13.046875 -11.796875 C 13.410156 -11.628906 13.84375 -11.289062 14.34375 -10.78125 C 14.851562 -10.28125 15.300781 -9.757812 15.6875 -9.21875 C 17.800781 -6.207031 19.175781 -4.351562 19.8125 -3.65625 C 20.445312 -2.957031 20.898438 -2.476562 21.171875 -2.21875 C 21.441406 -1.96875 21.734375 -1.71875 22.046875 -1.46875 C 22.367188 -1.226562 22.6875 -1.03125 23 -0.875 C 23.71875 -0.539062 24.476562 -0.375 25.28125 -0.375 L 25.28125 0 L 23.265625 0 C 22.210938 0 21.234375 -0.1875 20.328125 -0.5625 C 19.421875 -0.945312 18.738281 -1.34375 18.28125 -1.75 C 17.832031 -2.15625 17.441406 -2.546875 17.109375 -2.921875 C 16.773438 -3.296875 15.859375 -4.5625 14.359375 -6.71875 C 12.867188 -8.875 12 -10.101562 11.75 -10.40625 C 11.507812 -10.71875 11.253906 -11.019531 10.984375 -11.3125 C 10.203125 -12.144531 9.421875 -12.5625 8.640625 -12.5625 L 8.640625 -12.9375 C 8.835938 -12.914062 9.09375 -12.90625 9.40625 -12.90625 C 9.726562 -12.90625 10.117188 -12.914062 10.578125 -12.9375 C 13.617188 -13.007812 15.53125 -14.285156 16.3125 -16.765625 C 16.457031 -17.253906 16.53125 -17.710938 16.53125 -18.140625 C 16.53125 -18.566406 16.53125 -18.84375 16.53125 -18.96875 C 16.488281 -20.601562 16.0625 -21.921875 15.25 -22.921875 C 14.4375 -23.929688 13.347656 -24.472656 11.984375 -24.546875 C 11.390625 -24.566406 10.65625 -24.578125 9.78125 -24.578125 Z M 9.78125 -24.578125 "/></g></g></g><g fill="#393536" fill-opacity="1"><g transform="translate(153.750331, 228.274936)"><g><path d="M 9.78125 -0.375 L 10.25 -0.375 L 10.25 0 L 2.203125 0 L 2.203125 -0.375 L 2.6875 -0.375 C 3.320312 -0.375 3.863281 -0.597656 4.3125 -1.046875 C 4.769531 -1.503906 5.007812 -2.050781 5.03125 -2.6875 L 5.03125 -23.078125 C 5.007812 -23.710938 4.769531 -24.25 4.3125 -24.6875 C 3.863281 -25.132812 3.320312 -25.359375 2.6875 -25.359375 L 2.203125 -25.359375 L 2.203125 -25.71875 L 10.25 -25.71875 L 10.25 -25.359375 L 9.78125 -25.359375 C 9.132812 -25.359375 8.582031 -25.132812 8.125 -24.6875 C 7.675781 -24.25 7.441406 -23.710938 7.421875 -23.078125 L 7.421875 -2.6875 C 7.421875 -2.050781 7.648438 -1.503906 8.109375 -1.046875 C 8.578125 -0.597656 9.132812 -0.375 9.78125 -0.375 Z M 24.546875 0 L 22.96875 0 C 20.46875 0 18.628906 -0.695312 17.453125 -2.09375 L 8.59375 -12.78125 L 17.265625 -23.671875 C 17.460938 -23.910156 17.5625 -24.128906 17.5625 -24.328125 C 17.5625 -24.523438 17.523438 -24.695312 17.453125 -24.84375 C 17.253906 -25.207031 16.898438 -25.390625 16.390625 -25.390625 L 16.015625 -25.390625 L 16.015625 -25.71875 L 23.78125 -25.71875 L 23.78125 -25.390625 L 23.625 -25.390625 C 22.007812 -25.390625 20.6875 -24.816406 19.65625 -23.671875 L 11.03125 -13.671875 L 21.0625 -1.875 C 22.039062 -0.894531 23.203125 -0.394531 24.546875 -0.375 Z M 24.546875 0 "/></g></g></g><g fill="#393536" fill-opacity="1"><g transform="translate(177.887338, 228.274936)"><g><path d="M 26.3125 -0.375 L 26.59375 -0.375 L 26.59375 0 L 18.328125 0 L 18.328125 -0.375 L 18.65625 -0.375 C 19.175781 -0.375 19.5625 -0.535156 19.8125 -0.859375 C 20.070312 -1.191406 20.203125 -1.503906 20.203125 -1.796875 C 20.203125 -2.085938 20.15625 -2.382812 20.0625 -2.6875 L 17.703125 -8.9375 L 7.78125 -8.9375 L 5.328125 -2.640625 C 5.222656 -2.347656 5.171875 -2.0625 5.171875 -1.78125 C 5.171875 -1.5 5.300781 -1.191406 5.5625 -0.859375 C 5.820312 -0.535156 6.207031 -0.375 6.71875 -0.375 L 7.046875 -0.375 L 7.046875 0 L -0.34375 0 L -0.34375 -0.375 L 0 -0.375 C 0.601562 -0.375 1.195312 -0.566406 1.78125 -0.953125 C 2.375 -1.347656 2.859375 -1.925781 3.234375 -2.6875 L 11.53125 -22.453125 C 12.4375 -24.441406 12.890625 -25.703125 12.890625 -26.234375 L 13.21875 -26.234375 L 23.078125 -2.6875 C 23.421875 -1.925781 23.882812 -1.347656 24.46875 -0.953125 C 25.0625 -0.566406 25.675781 -0.375 26.3125 -0.375 Z M 8.21875 -10.03125 L 17.265625 -10.03125 L 12.859375 -21.828125 Z M 8.21875 -10.03125 "/></g></g></g><g fill="#393536" fill-opacity="1"><g transform="translate(204.044948, 228.274936)"><g><path d="M 14.65625 -25.71875 C 18.582031 -25.71875 21.765625 -24.535156 24.203125 -22.171875 C 26.640625 -19.804688 27.859375 -16.703125 27.859375 -12.859375 C 27.859375 -9.015625 26.640625 -5.910156 24.203125 -3.546875 C 21.765625 -1.179688 18.582031 0 14.65625 0 L 2.203125 0 L 2.203125 -0.375 L 2.6875 -0.375 C 3.320312 -0.375 3.863281 -0.597656 4.3125 -1.046875 C 4.769531 -1.503906 5.007812 -2.050781 5.03125 -2.6875 L 5.03125 -23.265625 C 5.03125 -23.847656 4.789062 -24.34375 4.3125 -24.75 C 3.832031 -25.15625 3.289062 -25.359375 2.6875 -25.359375 L 2.234375 -25.359375 L 2.203125 -25.71875 Z M 7.421875 -24.625 L 7.421875 -1.109375 L 14.65625 -1.109375 C 16.71875 -1.109375 18.535156 -1.597656 20.109375 -2.578125 C 21.691406 -3.554688 22.914062 -4.929688 23.78125 -6.703125 C 24.65625 -8.484375 25.09375 -10.535156 25.09375 -12.859375 C 25.09375 -16.390625 24.128906 -19.234375 22.203125 -21.390625 C 20.285156 -23.546875 17.769531 -24.625 14.65625 -24.625 Z M 7.421875 -24.625 "/></g></g></g><g fill="#393536" fill-opacity="1"><g transform="translate(233.692685, 228.274936)"><g><path d="M 2.6875 -0.375 C 3.320312 -0.375 3.863281 -0.597656 4.3125 -1.046875 C 4.769531 -1.503906 5.007812 -2.050781 5.03125 -2.6875 L 5.03125 -23.078125 C 5.007812 -23.710938 4.769531 -24.25 4.3125 -24.6875 C 3.863281 -25.132812 3.320312 -25.359375 2.6875 -25.359375 L 2.203125 -25.359375 L 2.203125 -25.71875 L 10.25 -25.71875 L 10.25 -25.359375 L 9.78125 -25.359375 C 9.132812 -25.359375 8.582031 -25.132812 8.125 -24.6875 C 7.675781 -24.25 7.441406 -23.710938 7.421875 -23.078125 L 7.421875 -2.6875 C 7.421875 -2.050781 7.648438 -1.503906 8.109375 -1.046875 C 8.578125 -0.597656 9.132812 -0.375 9.78125 -0.375 L 10.25 -0.375 L 10.25 0 L 2.203125 0 L 2.203125 -0.375 Z M 2.6875 -0.375 "/></g></g></g><g fill="#393536" fill-opacity="1"><g transform="translate(246.110199, 228.274936)"><g><path d="M 26.3125 -0.375 L 26.59375 -0.375 L 26.59375 0 L 18.328125 0 L 18.328125 -0.375 L 18.65625 -0.375 C 19.175781 -0.375 19.5625 -0.535156 19.8125 -0.859375 C 20.070312 -1.191406 20.203125 -1.503906 20.203125 -1.796875 C 20.203125 -2.085938 20.15625 -2.382812 20.0625 -2.6875 L 17.703125 -8.9375 L 7.78125 -8.9375 L 5.328125 -2.640625 C 5.222656 -2.347656 5.171875 -2.0625 5.171875 -1.78125 C 5.171875 -1.5 5.300781 -1.191406 5.5625 -0.859375 C 5.820312 -0.535156 6.207031 -0.375 6.71875 -0.375 L 7.046875 -0.375 L 7.046875 0 L -0.34375 0 L -0.34375 -0.375 L 0 -0.375 C 0.601562 -0.375 1.195312 -0.566406 1.78125 -0.953125 C 2.375 -1.347656 2.859375 -1.925781 3.234375 -2.6875 L 11.53125 -22.453125 C 12.4375 -24.441406 12.890625 -25.703125 12.890625 -26.234375 L 13.21875 -26.234375 L 23.078125 -2.6875 C 23.421875 -1.925781 23.882812 -1.347656 24.46875 -0.953125 C 25.0625 -0.566406 25.675781 -0.375 26.3125 -0.375 Z M 8.21875 -10.03125 L 17.265625 -10.03125 L 12.859375 -21.828125 Z M 8.21875 -10.03125 "/></g></g></g><path stroke-linecap="butt" transform="matrix(0.75, 0, 0, 0.75, 102.362628, 245.888715)" fill="none" stroke-linejoin="miter" d="M 0.000870762 0.502547 L 37.313373 0.502547 " stroke="#000000" stroke-width="1" stroke-opacity="1" stroke-miterlimit="4"/><path stroke-linecap="butt" transform="matrix(0.75, 0, 0, 0.75, 244.653108, 245.888715)" fill="none" stroke-linejoin="miter" d="M -0.00101958 0.502547 L 37.311483 0.502547 " stroke="#000000" stroke-width="1" stroke-opacity="1" stroke-miterlimit="4"/></svg>