<svg xmlns="http://www.w3.org/2000/svg" xmlns:xlink="http://www.w3.org/1999/xlink" width="500" zoomAndPan="magnify" viewBox="0 0 375 374.999991" height="500" preserveAspectRatio="xMidYMid meet" version="1.0"><defs><g/><clipPath id="804a8affd4"><path d="M 221 41.523438 L 369 41.523438 L 369 178.773438 L 221 178.773438 Z M 221 41.523438 " clip-rule="nonzero"/></clipPath><clipPath id="2f9e4115f8"><path d="M 153 41.523438 L 246 41.523438 L 246 158 L 153 158 Z M 153 41.523438 " clip-rule="nonzero"/></clipPath><clipPath id="cbc5655dda"><path d="M 6.007812 83 L 93 83 L 93 178.773438 L 6.007812 178.773438 Z M 6.007812 83 " clip-rule="nonzero"/></clipPath><clipPath id="fc19818469"><path d="M 92 83 L 179 83 L 179 178.773438 L 92 178.773438 Z M 92 83 " clip-rule="nonzero"/></clipPath></defs><g clip-path="url(#804a8affd4)"><path fill="#ffd700" d="M 245.378906 41.546875 L 368.988281 178.53125 L 221.132812 178.53125 L 334.335938 167.351562 L 245.378906 68.75 L 245.378906 41.546875 " fill-opacity="1" fill-rule="nonzero"/></g><g clip-path="url(#2f9e4115f8)"><path fill="#393536" d="M 153.261719 143.636719 L 165.546875 157.238281 L 245.378906 68.75 L 245.378906 41.546875 L 153.261719 143.636719 " fill-opacity="1" fill-rule="nonzero"/></g><g clip-path="url(#cbc5655dda)"><path fill="#393536" d="M 49.976562 129.84375 L 49.976562 113.414062 L 33.707031 113.414062 L 23.8125 127.621094 L 33.707031 122.421875 L 33.707031 147.859375 L 6.007812 178.53125 L 30.578125 178.53125 L 92.019531 110.488281 L 92.019531 83.28125 L 49.976562 129.84375 " fill-opacity="1" fill-rule="nonzero"/></g><g clip-path="url(#fc19818469)"><path fill="#ffd700" d="M 92.019531 83.28125 L 92.019531 110.488281 L 153.464844 178.53125 L 178.027344 178.53125 L 92.019531 83.28125 " fill-opacity="1" fill-rule="nonzero"/></g><path fill="#ffd700" d="M 243.394531 134.117188 L 227.179688 134.117188 L 227.179688 117.898438 L 243.394531 117.898438 L 243.394531 134.117188 " fill-opacity="1" fill-rule="nonzero"/><path fill="#ffd700" d="M 263.578125 134.117188 L 247.363281 134.117188 L 247.363281 117.898438 L 263.578125 117.898438 L 263.578125 134.117188 " fill-opacity="1" fill-rule="nonzero"/><path fill="#ffd700" d="M 243.394531 154.453125 L 227.179688 154.453125 L 227.179688 138.234375 L 243.394531 138.234375 L 243.394531 154.453125 " fill-opacity="1" fill-rule="nonzero"/><path fill="#ffd700" d="M 263.578125 154.453125 L 247.363281 154.453125 L 247.363281 138.234375 L 263.578125 138.234375 L 263.578125 154.453125 " fill-opacity="1" fill-rule="nonzero"/><path fill="#ffd700" d="M 90.574219 155.734375 L 78.730469 155.734375 L 78.730469 143.894531 L 90.574219 143.894531 L 90.574219 155.734375 " fill-opacity="1" fill-rule="nonzero"/><path fill="#ffd700" d="M 105.308594 155.734375 L 93.46875 155.734375 L 93.46875 143.894531 L 105.308594 143.894531 L 105.308594 155.734375 " fill-opacity="1" fill-rule="nonzero"/><path fill="#ffd700" d="M 90.574219 170.589844 L 78.730469 170.589844 L 78.730469 158.746094 L 90.574219 158.746094 L 90.574219 170.589844 " fill-opacity="1" fill-rule="nonzero"/><path fill="#ffd700" d="M 105.308594 170.589844 L 93.46875 170.589844 L 93.46875 158.746094 L 105.308594 158.746094 L 105.308594 170.589844 " fill-opacity="1" fill-rule="nonzero"/><g fill="#393536" fill-opacity="1"><g transform="translate(91.963698, 325.959162)"><g><path d="M 6.65625 -10.90625 L 6.65625 0 L 3.609375 0 L 3.609375 -26.21875 L 10.796875 -26.21875 C 14.015625 -26.21875 16.390625 -25.601562 17.921875 -24.375 C 19.460938 -23.144531 20.234375 -21.289062 20.234375 -18.8125 C 20.234375 -15.34375 18.472656 -13 14.953125 -11.78125 L 22.078125 0 L 18.46875 0 L 12.125 -10.90625 Z M 6.65625 -13.53125 L 10.828125 -13.53125 C 12.984375 -13.53125 14.5625 -13.957031 15.5625 -14.8125 C 16.570312 -15.664062 17.078125 -16.945312 17.078125 -18.65625 C 17.078125 -20.382812 16.566406 -21.628906 15.546875 -22.390625 C 14.523438 -23.160156 12.882812 -23.546875 10.625 -23.546875 L 6.65625 -23.546875 Z M 6.65625 -13.53125 "/></g></g></g><g fill="#393536" fill-opacity="1"><g transform="translate(122.233882, 325.959162)"><g><path d="M 20.09375 0 L 16.828125 -8.34375 L 6.3125 -8.34375 L 3.078125 0 L 0 0 L 10.375 -26.328125 L 12.9375 -26.328125 L 23.25 0 Z M 15.875 -11.078125 L 12.828125 -19.203125 C 12.429688 -20.234375 12.023438 -21.5 11.609375 -23 C 11.335938 -21.84375 10.957031 -20.578125 10.46875 -19.203125 L 7.390625 -11.078125 Z M 15.875 -11.078125 "/></g></g></g><g fill="#393536" fill-opacity="1"><g transform="translate(153.041994, 325.959162)"><g><path d="M 24.53125 -13.359375 C 24.53125 -9.035156 23.351562 -5.726562 21 -3.4375 C 18.65625 -1.144531 15.28125 0 10.875 0 L 3.609375 0 L 3.609375 -26.21875 L 11.640625 -26.21875 C 15.710938 -26.21875 18.878906 -25.085938 21.140625 -22.828125 C 23.398438 -20.566406 24.53125 -17.410156 24.53125 -13.359375 Z M 21.3125 -13.25 C 21.3125 -16.675781 20.453125 -19.253906 18.734375 -20.984375 C 17.015625 -22.722656 14.460938 -23.59375 11.078125 -23.59375 L 6.65625 -23.59375 L 6.65625 -2.640625 L 10.375 -2.640625 C 14 -2.640625 16.726562 -3.53125 18.5625 -5.3125 C 20.394531 -7.101562 21.3125 -9.75 21.3125 -13.25 Z M 21.3125 -13.25 "/></g></g></g><g fill="#393536" fill-opacity="1"><g transform="translate(187.382503, 325.959162)"><g><path d="M 20.09375 0 L 16.828125 -8.34375 L 6.3125 -8.34375 L 3.078125 0 L 0 0 L 10.375 -26.328125 L 12.9375 -26.328125 L 23.25 0 Z M 15.875 -11.078125 L 12.828125 -19.203125 C 12.429688 -20.234375 12.023438 -21.5 11.609375 -23 C 11.335938 -21.84375 10.957031 -20.578125 10.46875 -19.203125 L 7.390625 -11.078125 Z M 15.875 -11.078125 "/></g></g></g><g fill="#393536" fill-opacity="1"><g transform="translate(218.190615, 325.959162)"><g><path d="M 26.5 0 L 23.484375 0 L 18.1875 -17.5625 C 17.9375 -18.332031 17.65625 -19.3125 17.34375 -20.5 C 17.03125 -21.6875 16.867188 -22.398438 16.859375 -22.640625 C 16.597656 -21.054688 16.179688 -19.328125 15.609375 -17.453125 L 10.46875 0 L 7.46875 0 L 0.484375 -26.21875 L 3.71875 -26.21875 L 7.859375 -10.03125 C 8.429688 -7.757812 8.847656 -5.703125 9.109375 -3.859375 C 9.429688 -6.046875 9.910156 -8.1875 10.546875 -10.28125 L 15.25 -26.21875 L 18.46875 -26.21875 L 23.40625 -10.140625 C 23.976562 -8.285156 24.460938 -6.191406 24.859375 -3.859375 C 25.085938 -5.554688 25.519531 -7.625 26.15625 -10.0625 L 30.28125 -26.21875 L 33.5 -26.21875 Z M 26.5 0 "/></g></g></g><g fill="#393536" fill-opacity="1"><g transform="translate(259.7573, 325.959162)"><g><path d="M 20.09375 0 L 16.828125 -8.34375 L 6.3125 -8.34375 L 3.078125 0 L 0 0 L 10.375 -26.328125 L 12.9375 -26.328125 L 23.25 0 Z M 15.875 -11.078125 L 12.828125 -19.203125 C 12.429688 -20.234375 12.023438 -21.5 11.609375 -23 C 11.335938 -21.84375 10.957031 -20.578125 10.46875 -19.203125 L 7.390625 -11.078125 Z M 15.875 -11.078125 "/></g></g></g><g fill="#393536" fill-opacity="1"><g transform="translate(6.773012, 265.521569)"><g><path d="M 56.078125 -0.78125 L 56.703125 -0.78125 L 56.703125 0 L 39.078125 0 L 39.078125 -0.78125 L 39.796875 -0.78125 C 40.890625 -0.78125 41.707031 -1.128906 42.25 -1.828125 C 42.800781 -2.535156 43.078125 -3.203125 43.078125 -3.828125 C 43.078125 -4.460938 42.972656 -5.09375 42.765625 -5.71875 L 37.75 -19.03125 L 16.609375 -19.03125 L 11.359375 -5.640625 C 11.148438 -5.015625 11.046875 -4.398438 11.046875 -3.796875 C 11.046875 -3.191406 11.316406 -2.535156 11.859375 -1.828125 C 12.410156 -1.128906 13.234375 -0.78125 14.328125 -0.78125 L 15.03125 -0.78125 L 15.03125 0 L -0.703125 0 L -0.703125 -0.78125 L 0 -0.78125 C 1.300781 -0.78125 2.578125 -1.195312 3.828125 -2.03125 C 5.085938 -2.875 6.109375 -4.101562 6.890625 -5.71875 L 24.59375 -47.859375 C 26.53125 -52.085938 27.5 -54.773438 27.5 -55.921875 L 28.203125 -55.921875 L 49.1875 -5.71875 C 49.914062 -4.101562 50.90625 -2.875 52.15625 -2.03125 C 53.414062 -1.195312 54.722656 -0.78125 56.078125 -0.78125 Z M 17.546875 -21.390625 L 36.8125 -21.390625 L 27.421875 -46.53125 Z M 17.546875 -21.390625 "/></g></g></g><g fill="#393536" fill-opacity="1"><g transform="translate(62.534272, 265.521569)"><g><path d="M 20.828125 -52.40625 L 15.828125 -52.40625 L 15.828125 -5.71875 C 15.828125 -4.363281 16.304688 -3.203125 17.265625 -2.234375 C 18.234375 -1.265625 19.421875 -0.78125 20.828125 -0.78125 L 21.78125 -0.78125 L 21.859375 0 L 4.703125 0 L 4.703125 -0.78125 L 5.71875 -0.78125 C 7.070312 -0.78125 8.234375 -1.25 9.203125 -2.1875 C 10.171875 -3.132812 10.679688 -4.285156 10.734375 -5.640625 L 10.734375 -49.109375 C 10.679688 -50.460938 10.171875 -51.625 9.203125 -52.59375 C 8.234375 -53.5625 7.070312 -54.046875 5.71875 -54.046875 L 4.703125 -54.046875 L 4.703125 -54.828125 L 25.84375 -54.828125 C 30.59375 -54.828125 34.328125 -53.507812 37.046875 -50.875 C 39.765625 -48.238281 41.125 -44.816406 41.125 -40.609375 C 41.125 -36.410156 39.832031 -32.78125 37.25 -29.71875 C 34.664062 -26.664062 31.519531 -25.140625 27.8125 -25.140625 C 28.59375 -24.773438 29.515625 -24.054688 30.578125 -22.984375 C 31.648438 -21.921875 32.609375 -20.8125 33.453125 -19.65625 C 37.941406 -13.238281 40.863281 -9.285156 42.21875 -7.796875 C 43.570312 -6.304688 44.535156 -5.285156 45.109375 -4.734375 C 45.691406 -4.191406 46.320312 -3.65625 47 -3.125 C 47.675781 -2.601562 48.351562 -2.1875 49.03125 -1.875 C 50.550781 -1.144531 52.171875 -0.78125 53.890625 -0.78125 L 53.890625 0 L 49.578125 0 C 47.335938 0 45.25 -0.398438 43.3125 -1.203125 C 41.382812 -2.015625 39.9375 -2.851562 38.96875 -3.71875 C 38 -4.582031 37.160156 -5.414062 36.453125 -6.21875 C 35.753906 -7.03125 33.8125 -9.734375 30.625 -14.328125 C 27.4375 -18.929688 25.582031 -21.554688 25.0625 -22.203125 C 24.539062 -22.859375 23.992188 -23.5 23.421875 -24.125 C 21.742188 -25.894531 20.070312 -26.78125 18.40625 -26.78125 L 18.40625 -27.578125 C 18.820312 -27.523438 19.367188 -27.5 20.046875 -27.5 C 20.722656 -27.5 21.5625 -27.523438 22.5625 -27.578125 C 29.03125 -27.734375 33.101562 -30.445312 34.78125 -35.71875 C 35.09375 -36.757812 35.25 -37.738281 35.25 -38.65625 C 35.25 -39.570312 35.25 -40.160156 35.25 -40.421875 C 35.144531 -43.921875 34.226562 -46.738281 32.5 -48.875 C 30.78125 -51.019531 28.457031 -52.171875 25.53125 -52.328125 C 24.28125 -52.378906 22.710938 -52.40625 20.828125 -52.40625 Z M 20.828125 -52.40625 "/></g></g></g><g fill="#393536" fill-opacity="1"><g transform="translate(115.554463, 265.521569)"><g><path d="M 20.828125 -0.78125 L 21.859375 -0.78125 L 21.859375 0 L 4.703125 0 L 4.703125 -0.78125 L 5.71875 -0.78125 C 7.070312 -0.78125 8.234375 -1.265625 9.203125 -2.234375 C 10.171875 -3.203125 10.679688 -4.363281 10.734375 -5.71875 L 10.734375 -49.1875 C 10.679688 -50.550781 10.171875 -51.703125 9.203125 -52.640625 C 8.234375 -53.578125 7.070312 -54.046875 5.71875 -54.046875 L 4.703125 -54.046875 L 4.703125 -54.828125 L 21.859375 -54.828125 L 21.859375 -54.046875 L 20.828125 -54.046875 C 19.472656 -54.046875 18.3125 -53.578125 17.34375 -52.640625 C 16.382812 -51.703125 15.878906 -50.550781 15.828125 -49.1875 L 15.828125 -5.71875 C 15.828125 -4.363281 16.320312 -3.203125 17.3125 -2.234375 C 18.300781 -1.265625 19.472656 -0.78125 20.828125 -0.78125 Z M 52.328125 0 L 48.953125 0 C 43.628906 0 39.710938 -1.488281 37.203125 -4.46875 L 18.328125 -27.265625 L 36.8125 -50.4375 C 37.226562 -50.96875 37.4375 -51.441406 37.4375 -51.859375 C 37.4375 -52.273438 37.359375 -52.640625 37.203125 -52.953125 C 36.785156 -53.734375 36.03125 -54.125 34.9375 -54.125 L 34.15625 -54.125 L 34.15625 -54.828125 L 50.671875 -54.828125 L 50.671875 -54.125 L 50.359375 -54.125 C 46.921875 -54.125 44.101562 -52.894531 41.90625 -50.4375 L 23.5 -29.140625 L 44.875 -4 C 46.96875 -1.90625 49.453125 -0.832031 52.328125 -0.78125 Z M 52.328125 0 "/></g></g></g><g fill="#393536" fill-opacity="1"><g transform="translate(167.008319, 265.521569)"><g><path d="M 56.078125 -0.78125 L 56.703125 -0.78125 L 56.703125 0 L 39.078125 0 L 39.078125 -0.78125 L 39.796875 -0.78125 C 40.890625 -0.78125 41.707031 -1.128906 42.25 -1.828125 C 42.800781 -2.535156 43.078125 -3.203125 43.078125 -3.828125 C 43.078125 -4.460938 42.972656 -5.09375 42.765625 -5.71875 L 37.75 -19.03125 L 16.609375 -19.03125 L 11.359375 -5.640625 C 11.148438 -5.015625 11.046875 -4.398438 11.046875 -3.796875 C 11.046875 -3.191406 11.316406 -2.535156 11.859375 -1.828125 C 12.410156 -1.128906 13.234375 -0.78125 14.328125 -0.78125 L 15.03125 -0.78125 L 15.03125 0 L -0.703125 0 L -0.703125 -0.78125 L 0 -0.78125 C 1.300781 -0.78125 2.578125 -1.195312 3.828125 -2.03125 C 5.085938 -2.875 6.109375 -4.101562 6.890625 -5.71875 L 24.59375 -47.859375 C 26.53125 -52.085938 27.5 -54.773438 27.5 -55.921875 L 28.203125 -55.921875 L 49.1875 -5.71875 C 49.914062 -4.101562 50.90625 -2.875 52.15625 -2.03125 C 53.414062 -1.195312 54.722656 -0.78125 56.078125 -0.78125 Z M 17.546875 -21.390625 L 36.8125 -21.390625 L 27.421875 -46.53125 Z M 17.546875 -21.390625 "/></g></g></g><g fill="#393536" fill-opacity="1"><g transform="translate(222.769578, 265.521569)"><g><path d="M 31.25 -54.828125 C 39.601562 -54.828125 46.378906 -52.304688 51.578125 -47.265625 C 56.773438 -42.234375 59.375 -35.617188 59.375 -27.421875 C 59.375 -19.222656 56.773438 -12.601562 51.578125 -7.5625 C 46.378906 -2.519531 39.601562 0 31.25 0 L 4.703125 0 L 4.703125 -0.78125 L 5.71875 -0.78125 C 7.070312 -0.78125 8.234375 -1.265625 9.203125 -2.234375 C 10.171875 -3.203125 10.679688 -4.363281 10.734375 -5.71875 L 10.734375 -49.578125 C 10.734375 -50.835938 10.222656 -51.894531 9.203125 -52.75 C 8.179688 -53.613281 7.019531 -54.046875 5.71875 -54.046875 L 4.78125 -54.046875 L 4.703125 -54.828125 Z M 15.828125 -52.484375 L 15.828125 -2.34375 L 31.25 -2.34375 C 35.632812 -2.34375 39.507812 -3.382812 42.875 -5.46875 C 46.25 -7.5625 48.863281 -10.5 50.71875 -14.28125 C 52.570312 -18.070312 53.5 -22.453125 53.5 -27.421875 C 53.5 -34.929688 51.445312 -40.984375 47.34375 -45.578125 C 43.25 -50.179688 37.882812 -52.484375 31.25 -52.484375 Z M 15.828125 -52.484375 "/></g></g></g><g fill="#393536" fill-opacity="1"><g transform="translate(285.970885, 265.521569)"><g><path d="M 5.71875 -0.78125 C 7.070312 -0.78125 8.234375 -1.265625 9.203125 -2.234375 C 10.171875 -3.203125 10.679688 -4.363281 10.734375 -5.71875 L 10.734375 -49.1875 C 10.679688 -50.550781 10.171875 -51.703125 9.203125 -52.640625 C 8.234375 -53.578125 7.070312 -54.046875 5.71875 -54.046875 L 4.703125 -54.046875 L 4.703125 -54.828125 L 21.859375 -54.828125 L 21.859375 -54.046875 L 20.828125 -54.046875 C 19.472656 -54.046875 18.3125 -53.578125 17.34375 -52.640625 C 16.382812 -51.703125 15.878906 -50.550781 15.828125 -49.1875 L 15.828125 -5.71875 C 15.828125 -4.363281 16.320312 -3.203125 17.3125 -2.234375 C 18.300781 -1.265625 19.472656 -0.78125 20.828125 -0.78125 L 21.859375 -0.78125 L 21.859375 0 L 4.703125 0 L 4.703125 -0.78125 Z M 5.71875 -0.78125 "/></g></g></g><g fill="#393536" fill-opacity="1"><g transform="translate(312.441813, 265.521569)"><g><path d="M 56.078125 -0.78125 L 56.703125 -0.78125 L 56.703125 0 L 39.078125 0 L 39.078125 -0.78125 L 39.796875 -0.78125 C 40.890625 -0.78125 41.707031 -1.128906 42.25 -1.828125 C 42.800781 -2.535156 43.078125 -3.203125 43.078125 -3.828125 C 43.078125 -4.460938 42.972656 -5.09375 42.765625 -5.71875 L 37.75 -19.03125 L 16.609375 -19.03125 L 11.359375 -5.640625 C 11.148438 -5.015625 11.046875 -4.398438 11.046875 -3.796875 C 11.046875 -3.191406 11.316406 -2.535156 11.859375 -1.828125 C 12.410156 -1.128906 13.234375 -0.78125 14.328125 -0.78125 L 15.03125 -0.78125 L 15.03125 0 L -0.703125 0 L -0.703125 -0.78125 L 0 -0.78125 C 1.300781 -0.78125 2.578125 -1.195312 3.828125 -2.03125 C 5.085938 -2.875 6.109375 -4.101562 6.890625 -5.71875 L 24.59375 -47.859375 C 26.53125 -52.085938 27.5 -54.773438 27.5 -55.921875 L 28.203125 -55.921875 L 49.1875 -5.71875 C 49.914062 -4.101562 50.90625 -2.875 52.15625 -2.03125 C 53.414062 -1.195312 54.722656 -0.78125 56.078125 -0.78125 Z M 17.546875 -21.390625 L 36.8125 -21.390625 L 27.421875 -46.53125 Z M 17.546875 -21.390625 "/></g></g></g><path stroke-linecap="butt" transform="matrix(0.75, 0, 0, 0.75, 6.009151, 302.743955)" fill="none" stroke-linejoin="miter" d="M -0.00178433 1.497643 L 79.539888 1.497643 " stroke="#000000" stroke-width="3" stroke-opacity="1" stroke-miterlimit="4"/><path stroke-linecap="butt" transform="matrix(0.75, 0, 0, 0.75, 309.335639, 302.743955)" fill="none" stroke-linejoin="miter" d="M 0.000398551 1.497643 L 79.54207 1.497643 " stroke="#000000" stroke-width="3" stroke-opacity="1" stroke-miterlimit="4"/></svg>